<svg width="61" height="61" viewBox="0 0 61 61" fill="none" xmlns="http://www.w3.org/2000/svg">
<path d="M12.3906 26.6875H2.85938C1.28017 26.6875 0 27.9677 0 29.5469V58.1406C0 59.7198 1.28017 61 2.85938 61H12.3906C13.9698 61 15.25 59.7198 15.25 58.1406V29.5469C15.25 27.9677 13.9698 26.6875 12.3906 26.6875ZM7.625 56.2344C6.04579 56.2344 4.76563 54.9542 4.76563 53.375C4.76563 51.7958 6.04579 50.5156 7.625 50.5156C9.20422 50.5156 10.4844 51.7958 10.4844 53.375C10.4844 54.9542 9.20422 56.2344 7.625 56.2344ZM45.75 9.70424C45.75 14.7577 42.6559 17.5923 41.7854 20.9688H53.9047C57.8837 20.9688 60.9813 24.2744 60.9999 27.8906C61.0099 30.0277 60.1009 32.3285 58.6839 33.7519L58.6708 33.765C59.8427 36.5454 59.6522 40.4413 57.5619 43.233C58.5961 46.3182 57.5537 50.1079 55.6101 52.1396C56.1222 54.2363 55.8775 56.0206 54.8776 57.4571C52.446 60.9508 46.4191 61 41.3226 61L40.9837 60.9999C35.2307 60.9979 30.5224 58.9032 26.7392 57.2201C24.8381 56.3744 22.3523 55.3274 20.4663 55.2927C19.6872 55.2784 19.0625 54.6425 19.0625 53.8632V28.3945C19.0625 28.0133 19.2153 27.6474 19.4864 27.3794C24.2061 22.7157 26.2355 17.7782 30.1039 13.9032C31.8676 12.1361 32.5091 9.46691 33.1292 6.88561C33.659 4.68139 34.7673 0 37.1719 0C40.0313 0 45.75 0.953125 45.75 9.70424Z" fill="black"/>
</svg>
